<?xml version="1.0" encoding="UTF-8"?>
<svg id="Capa_2" data-name="Capa 2" xmlns="http://www.w3.org/2000/svg" viewBox="0 0 8.28 11.7">
  <defs>
    <style>
      .cls-1 {
        fill: #f27405;
      }
    </style>
  </defs>
  <g id="Capa_1-2" data-name="Capa 1">
    <g>
      <path class="cls-1" d="m6.22.25c0-.14-.11-.25-.25-.25H.25c-.14,0-.25.11-.25.25v5.72c0,.14.11.25.25.25h1.55c.14,0,.25-.11.25-.25v-3.67c0-.14.11-.25.25-.25h3.67c.14,0,.25-.11.25-.25V.25Z"/>
      <path class="cls-1" d="m2.05,11.45c0,.14.11.25.25.25h5.72c.14,0,.25-.11.25-.25v-5.72c0-.14-.11-.25-.25-.25h-1.55c-.14,0-.25.11-.25.25v3.67c0,.14-.11.25-.25.25h-3.67c-.14,0-.25.11-.25.25v1.55Z"/>
    </g>
  </g>
</svg>