<?xml version="1.0" encoding="UTF-8"?>
<svg id="Capa_2" data-name="Capa 2" xmlns="http://www.w3.org/2000/svg" viewBox="0 0 898.75 146.2">
  <defs>
    <style>
      .cls-1 {
        fill: #f27405;
      }
    </style>
  </defs>
  <g id="Capa_1-2" data-name="Capa 1">
    <g>
      <g>
        <path class="cls-1" d="m169.86,86.47c4.22,2.74,8.4,4.89,12.55,6.45,4.14,1.56,8.01,2.35,11.61,2.35s6.06-.49,7.86-1.47c1.8-.98,2.7-2.44,2.7-4.4,0-1.01-.39-1.82-1.17-2.4-.78-.59-1.82-1.07-3.11-1.47-1.29-.39-2.8-.7-4.52-.94-1.72-.24-3.48-.55-5.28-.94-1.72-.31-3.74-.68-6.04-1.11-2.31-.43-4.67-1.06-7.1-1.88-2.42-.82-4.83-1.86-7.21-3.11-2.39-1.25-4.51-2.85-6.39-4.81-1.88-1.95-3.38-4.28-4.52-6.98-1.13-2.7-1.7-5.88-1.7-9.56,0-5.4,1.06-9.85,3.17-13.37,2.11-3.52,4.79-6.31,8.03-8.39,3.24-2.07,6.86-3.52,10.85-4.34,3.99-.82,7.86-1.23,11.61-1.23,6.57,0,12.45.96,17.65,2.87,5.2,1.92,10.18,4.71,14.95,8.39.63.55.98,1.21,1.06,1.99.08.78-.12,1.49-.59,2.11l-9.15,13.02c-.47.63-1.1,1.02-1.88,1.17-.78.16-1.49,0-2.11-.47-3.99-2.5-7.7-4.28-11.14-5.34-3.44-1.06-6.61-1.58-9.5-1.58-.86,0-1.86.02-2.99.06-1.13.04-2.21.19-3.23.47s-1.86.72-2.52,1.35c-.67.63-1,1.49-1,2.58s.82,2.07,2.46,2.93c1.64.86,3.52,1.6,5.63,2.23,2.11.63,4.14,1.11,6.1,1.47,1.95.35,3.2.57,3.75.64,2.81.55,5.9,1.35,9.26,2.4,3.36,1.06,6.51,2.62,9.44,4.69,2.93,2.07,5.4,4.77,7.39,8.09,1.99,3.32,2.99,7.49,2.99,12.49,0,4.69-.82,8.74-2.46,12.14-1.64,3.4-3.93,6.2-6.86,8.38-2.93,2.19-6.45,3.81-10.56,4.87-4.1,1.06-8.66,1.58-13.66,1.58-4.07,0-7.86-.33-11.38-1-3.52-.66-6.8-1.58-9.85-2.76-3.05-1.17-5.88-2.56-8.5-4.16-2.62-1.6-5.03-3.3-7.21-5.1-.63-.47-.98-1.11-1.06-1.94-.08-.82.12-1.54.59-2.17l9.03-13.02c.47-.63,1.09-1.01,1.88-1.17.78-.16,1.49-.04,2.11.35Z"/>
        <path class="cls-1" d="m239.88,32.99c0-.78.27-1.45.81-1.99.54-.55,1.21-.82,1.98-.82h17.62c.78,0,1.44.28,1.98.82.54.55.82,1.21.82,1.99v47.5c0,3.05.49,5.57,1.47,7.56s2.2,3.56,3.65,4.69c1.45,1.13,3,1.94,4.65,2.4,1.65.47,3.14.7,4.47.7s2.83-.23,4.47-.7,3.18-1.27,4.59-2.4c1.41-1.13,2.61-2.7,3.59-4.69s1.47-4.51,1.47-7.56v-47.5c0-.78.27-1.45.81-1.99.54-.55,1.21-.82,1.99-.82h17.62c.78,0,1.44.28,1.98.82.54.55.82,1.21.82,1.99v47.5c0,5.55-.88,10.6-2.64,15.13-1.76,4.53-4.27,8.41-7.55,11.61-3.28,3.21-7.22,5.69-11.83,7.45-4.61,1.76-9.72,2.64-15.34,2.64s-10.74-.88-15.34-2.64c-4.61-1.76-8.55-4.24-11.83-7.45-3.28-3.2-5.82-7.08-7.61-11.61-1.8-4.53-2.69-9.58-2.69-15.13v-47.5Z"/>
        <path class="cls-1" d="m368.45,92.8h-10.23c-.78,0-1.45.27-2,.82-.55.55-.82,1.21-.82,1.99v17.47c0,.78-.27,1.45-.82,1.99-.54.55-1.21.82-1.98.82h-17.62c-.78,0-1.44-.27-1.98-.82-.54-.55-.81-1.21-.81-1.99V32.87c0-.78.27-1.45.82-1.99.55-.55,1.21-.82,1.99-.82h35.89c4.38,0,8.5.82,12.37,2.46,3.87,1.64,7.23,3.91,10.09,6.8,2.85,2.89,5.12,6.26,6.8,10.09,1.68,3.83,2.52,7.94,2.52,12.31s-.71,8.47-2.12,12.26c-1.41,3.79-3.55,7.08-6.41,9.85-2.86,2.78-6.43,4.97-10.7,6.57-4.27,1.6-9.27,2.4-14.99,2.4Zm.86-41.17h-11.08c-.79,0-1.46.27-2,.82s-.82,1.2-.82,1.98v13.75c0,.78.28,1.44.82,1.98s1.22.81,2,.81h12.61c2.99,0,5.17-.95,6.54-2.85,1.37-1.9,2.06-4.06,2.06-6.47,0-1.24-.22-2.47-.65-3.67-.43-1.2-1.08-2.27-1.94-3.2-.87-.93-1.92-1.69-3.18-2.28-1.26-.58-2.71-.87-4.36-.87Z"/>
        <path class="cls-1" d="m434.91,54.45v4.93c0,.78.27,1.45.82,1.99.55.55,1.21.82,1.99.82h31.78c.78,0,1.45.28,1.99.82.55.55.82,1.21.82,1.99v16.18c0,.78-.27,1.45-.82,1.99-.55.55-1.21.82-1.99.82h-31.78c-.78,0-1.45.27-1.99.82s-.82,1.21-.82,1.99v4.46c0,.78.27,1.45.82,1.99.55.55,1.21.82,1.99.82h36.47c.78,0,1.45.27,1.99.82.55.55.82,1.21.82,1.99v16.18c0,.78-.28,1.45-.82,1.99s-1.21.82-1.99.82h-59.7c-.78,0-1.45-.27-1.99-.82-.55-.55-.82-1.21-.82-1.99V32.87c0-.78.27-1.45.82-1.99.55-.55,1.21-.82,1.99-.82h59.7c.78,0,1.45.28,1.99.82.55.55.82,1.21.82,1.99v15.95c0,.78-.28,1.45-.82,1.99s-1.21.82-1.99.82h-36.47c-.78,0-1.45.28-1.99.82s-.82,1.21-.82,1.99Z"/>
        <path class="cls-1" d="m512.42,115.91h-17.56c-.79,0-1.46-.27-2-.82-.55-.55-.82-1.21-.82-1.99V32.87c0-.78.27-1.45.82-1.99.55-.55,1.21-.82,1.99-.82h36.47c4.53,0,8.72.76,12.55,2.29,3.83,1.52,7.1,3.66,9.79,6.39,2.7,2.74,4.81,5.98,6.33,9.73,1.53,3.75,2.29,7.9,2.29,12.43,0,2.5-.29,4.99-.88,7.45-.59,2.46-1.43,4.79-2.52,6.98-1.1,2.19-2.39,4.16-3.87,5.92-1.49,1.76-3.17,3.23-5.04,4.4-.63.47-1.04,1.04-1.23,1.7-.2.67-.06,1.31.41,1.94,2.97,3.91,6.1,7.94,9.38,12.08,3.28,4.15,6.22,7.94,8.8,11.38.47.63.59,1.31.35,2.05-.24.74-.74,1.11-1.53,1.11h-21.81c-.78,0-1.62-.21-2.52-.65-.9-.43-1.58-.96-2.05-1.58-2.49-3.28-4.96-6.61-7.41-9.97-2.45-3.36-4.88-6.76-7.3-10.2-.47-.63-1.13-1.15-1.98-1.58-.86-.43-1.67-.65-2.45-.65h-2.57c-.78,0-1.44.28-1.98.82-.55.55-.82,1.21-.82,1.99v19c0,.78-.28,1.45-.83,1.99-.55.55-1.22.82-2,.82Zm5.63-46.21h12.37c.93,0,1.91-.17,2.92-.53,1.01-.35,1.94-.9,2.8-1.64.86-.74,1.56-1.66,2.1-2.76.54-1.09.82-2.38.82-3.87,0-.78-.14-1.7-.41-2.76-.27-1.06-.74-2.07-1.4-3.05-.66-.98-1.56-1.8-2.68-2.46-1.13-.66-2.51-1-4.14-1h-12.37c-.78,0-1.44.28-1.98.82-.55.55-.82,1.21-.82,1.99v12.43c0,.78.27,1.45.82,1.99.54.55,1.21.82,1.98.82Z"/>
        <path class="cls-1" d="m659.27,93.16c-2.27,3.66-4.77,6.99-7.51,9.99-2.74,2.99-5.81,5.54-9.21,7.64-3.4,2.1-7.17,3.73-11.32,4.9-4.15,1.16-8.72,1.75-13.72,1.75-6.26,0-12.12-1.17-17.59-3.52-5.47-2.35-10.26-5.51-14.37-9.5-4.1-3.99-7.33-8.68-9.67-14.07-2.35-5.39-3.52-11.14-3.52-17.24s1.17-11.85,3.52-17.24c2.35-5.39,5.57-10.09,9.67-14.07,4.1-3.99,8.89-7.15,14.37-9.5,5.47-2.35,11.34-3.52,17.59-3.52,5.16,0,9.81.59,13.96,1.76,4.14,1.17,7.9,2.81,11.26,4.93,3.36,2.11,6.39,4.67,9.09,7.68,2.7,3.01,5.18,6.31,7.45,9.91.39.63.47,1.29.24,1.99-.24.7-.7,1.21-1.41,1.52l-16.65,6.57c-.78.31-1.56.31-2.35,0-.78-.31-1.37-.78-1.76-1.41-2.27-3.6-5-6.35-8.21-8.27-3.21-1.92-7.08-2.87-11.61-2.87-2.97,0-5.77.63-8.38,1.88-2.62,1.25-4.91,2.92-6.86,5-1.96,2.08-3.48,4.49-4.57,7.23-1.1,2.74-1.64,5.57-1.64,8.47s.55,5.82,1.64,8.52c1.09,2.71,2.62,5.08,4.57,7.12,1.95,2.04,4.24,3.68,6.86,4.94,2.62,1.25,5.41,1.88,8.38,1.88,4.3,0,8.19-1.04,11.67-3.11,3.48-2.07,6.23-4.75,8.27-8.03.39-.63.96-1.09,1.7-1.41.74-.31,1.5-.31,2.29,0l16.65,6.57c.7.31,1.17.8,1.41,1.47.23.66.16,1.35-.24,2.05Z"/>
        <path class="cls-1" d="m689.76,32.76c.31-.7.84-1.31,1.58-1.82.74-.51,1.54-.76,2.4-.76h16.42c.78,0,1.54.26,2.29.76.74.51,1.27,1.11,1.58,1.82l34.25,79.75c.31.7.25,1.45-.18,2.23-.43.78-1.27,1.17-2.52,1.17h-20.05c-.86,0-1.66-.25-2.4-.76-.74-.51-1.31-1.11-1.7-1.82l-3.17-7.04c-.39-.7-.96-1.31-1.7-1.82-.74-.51-1.51-.76-2.29-.76h-24.75c-.86,0-1.66.26-2.4.76-.74.51-1.27,1.11-1.58,1.82l-3.28,7.04c-.31.7-.84,1.31-1.58,1.82-.74.51-1.51.76-2.29.76h-20.17c-.39,0-.8-.08-1.23-.24-.43-.15-.78-.39-1.06-.7-.27-.31-.45-.7-.53-1.17-.08-.47.04-1.01.35-1.64l34.01-79.4Zm6.92,51.02h10.44c.78,0,1.35-.25,1.7-.76.35-.51.33-1.11-.06-1.82-.78-1.95-1.72-4.24-2.81-6.86-1.1-2.62-2.11-5.06-3.05-7.33-.31-.7-.66-1.06-1.06-1.06s-.74.35-1.06,1.06l-5.86,14.19c-.31.7-.31,1.31,0,1.82.31.51.9.76,1.76.76Z"/>
        <path class="cls-1" d="m763.53,86.47c4.22,2.74,8.4,4.89,12.55,6.45,4.14,1.56,8.01,2.35,11.61,2.35s6.06-.49,7.86-1.47c1.8-.98,2.7-2.44,2.7-4.4,0-1.01-.39-1.82-1.17-2.4-.78-.59-1.82-1.07-3.11-1.47-1.29-.39-2.8-.7-4.52-.94-1.72-.24-3.48-.55-5.28-.94-1.72-.31-3.74-.68-6.04-1.11-2.31-.43-4.67-1.06-7.1-1.88s-4.83-1.86-7.21-3.11c-2.39-1.25-4.51-2.85-6.39-4.81-1.88-1.95-3.38-4.28-4.52-6.98-1.13-2.7-1.7-5.88-1.7-9.56,0-5.4,1.06-9.85,3.17-13.37,2.11-3.52,4.79-6.31,8.03-8.39,3.24-2.07,6.86-3.52,10.85-4.34,3.99-.82,7.86-1.23,11.61-1.23,6.57,0,12.45.96,17.65,2.87,5.2,1.92,10.18,4.71,14.95,8.39.63.55.98,1.21,1.06,1.99.08.78-.12,1.49-.59,2.11l-9.15,13.02c-.47.63-1.1,1.02-1.88,1.17-.78.16-1.49,0-2.11-.47-3.99-2.5-7.7-4.28-11.14-5.34-3.44-1.06-6.61-1.58-9.5-1.58-.86,0-1.86.02-2.99.06-1.13.04-2.21.19-3.23.47s-1.86.72-2.52,1.35c-.67.63-1,1.49-1,2.58s.82,2.07,2.46,2.93c1.64.86,3.52,1.6,5.63,2.23,2.11.63,4.14,1.11,6.1,1.47,1.95.35,3.2.57,3.75.64,2.81.55,5.9,1.35,9.26,2.4,3.36,1.06,6.51,2.62,9.44,4.69,2.93,2.07,5.4,4.77,7.39,8.09,1.99,3.32,2.99,7.49,2.99,12.49,0,4.69-.82,8.74-2.46,12.14-1.64,3.4-3.93,6.2-6.86,8.38-2.93,2.19-6.45,3.81-10.56,4.87-4.1,1.06-8.66,1.58-13.66,1.58-4.07,0-7.86-.33-11.38-1-3.52-.66-6.8-1.58-9.85-2.76-3.05-1.17-5.88-2.56-8.5-4.16-2.62-1.6-5.03-3.3-7.21-5.1-.63-.47-.98-1.11-1.06-1.94-.08-.82.12-1.54.59-2.17l9.03-13.02c.47-.63,1.09-1.01,1.88-1.17.78-.16,1.49-.04,2.11.35Z"/>
        <path class="cls-1" d="m856.65,54.45v4.93c0,.78.27,1.45.82,1.99.55.55,1.21.82,1.99.82h31.78c.78,0,1.45.28,1.99.82.55.55.82,1.21.82,1.99v16.18c0,.78-.27,1.45-.82,1.99-.55.55-1.21.82-1.99.82h-31.78c-.78,0-1.45.27-1.99.82s-.82,1.21-.82,1.99v4.46c0,.78.27,1.45.82,1.99.55.55,1.21.82,1.99.82h36.47c.78,0,1.45.27,1.99.82.55.55.82,1.21.82,1.99v16.18c0,.78-.28,1.45-.82,1.99s-1.21.82-1.99.82h-59.7c-.78,0-1.45-.27-1.99-.82-.55-.55-.82-1.21-.82-1.99V32.87c0-.78.27-1.45.82-1.99.55-.55,1.21-.82,1.99-.82h59.7c.78,0,1.45.28,1.99.82.55.55.82,1.21.82,1.99v15.95c0,.78-.28,1.45-.82,1.99s-1.21.82-1.99.82h-36.47c-.78,0-1.45.28-1.99.82s-.82,1.21-.82,1.99Z"/>
      </g>
      <g>
        <path class="cls-1" d="m77.77,3.12c0-1.72-1.4-3.12-3.12-3.12H3.12C1.4,0,0,1.4,0,3.12v71.53c0,1.72,1.4,3.12,3.12,3.12h19.4c1.72,0,3.12-1.4,3.12-3.12V28.76c0-1.72,1.4-3.12,3.12-3.12h45.88c1.72,0,3.12-1.4,3.12-3.12V3.12Z"/>
        <path class="cls-1" d="m25.66,143.08c0,1.72,1.4,3.12,3.12,3.12h71.53c1.72,0,3.12-1.4,3.12-3.12v-71.53c0-1.72-1.4-3.12-3.12-3.12h-19.4c-1.72,0-3.12,1.4-3.12,3.12v45.88c0,1.72-1.4,3.12-3.12,3.12H28.78c-1.72,0-3.12,1.4-3.12,3.12v19.4Z"/>
      </g>
    </g>
  </g>
</svg>