<?xml version="1.0" encoding="UTF-8"?>
<svg id="Capa_2" data-name="Capa 2" xmlns="http://www.w3.org/2000/svg" viewBox="0 0 802.66 514.79">
  <defs>
    <style>
      .cls-1 {
        fill: #f27405;
      }
    </style>
  </defs>
  <g id="Capa_1-2" data-name="Capa 1">
    <g>
      <g>
        <path class="cls-1" d="m14.73,481.32c4.56,2.96,9.08,5.28,13.57,6.97,4.48,1.69,8.66,2.54,12.55,2.54s6.55-.53,8.49-1.59c1.94-1.05,2.91-2.64,2.91-4.75,0-1.1-.42-1.96-1.27-2.6-.85-.63-1.97-1.16-3.36-1.59-1.39-.42-3.02-.76-4.88-1.01-1.86-.25-3.76-.59-5.7-1.01-1.86-.34-4.04-.74-6.53-1.2-2.49-.46-5.05-1.14-7.67-2.03s-5.22-2.01-7.8-3.36c-2.58-1.35-4.88-3.08-6.91-5.2-2.03-2.11-3.66-4.63-4.88-7.54-1.23-2.91-1.84-6.36-1.84-10.33,0-5.83,1.14-10.65,3.42-14.45,2.28-3.8,5.18-6.82,8.68-9.07,3.51-2.24,7.42-3.8,11.73-4.69,4.31-.89,8.49-1.33,12.55-1.33,7.1,0,13.46,1.04,19.08,3.11,5.62,2.07,11.01,5.09,16.16,9.07.68.59,1.06,1.31,1.14,2.16.08.85-.13,1.61-.63,2.28l-9.89,14.07c-.51.68-1.18,1.1-2.03,1.27-.85.17-1.61,0-2.28-.51-4.31-2.7-8.33-4.63-12.04-5.77-3.72-1.14-7.14-1.71-10.27-1.71-.93,0-2.01.02-3.23.06-1.23.04-2.39.21-3.49.51s-2.01.78-2.73,1.46c-.72.68-1.08,1.61-1.08,2.79s.89,2.24,2.66,3.17c1.78.93,3.8,1.73,6.09,2.41,2.28.68,4.48,1.2,6.59,1.59,2.11.38,3.46.61,4.06.7,3.04.59,6.38,1.46,10.02,2.6,3.63,1.14,7.04,2.83,10.21,5.07,3.17,2.24,5.83,5.16,7.99,8.75,2.15,3.59,3.23,8.09,3.23,13.5,0,5.07-.89,9.44-2.66,13.12-1.78,3.68-4.25,6.7-7.42,9.06-3.17,2.37-6.97,4.12-11.41,5.26-4.44,1.14-9.36,1.71-14.77,1.71-4.4,0-8.49-.36-12.3-1.08-3.8-.72-7.35-1.71-10.65-2.98-3.3-1.27-6.36-2.77-9.19-4.5-2.83-1.73-5.43-3.57-7.8-5.52-.68-.51-1.06-1.2-1.14-2.09-.08-.89.13-1.67.63-2.35l9.76-14.07c.51-.68,1.18-1.1,2.03-1.27.84-.17,1.61-.04,2.28.38Z"/>
        <path class="cls-1" d="m90.41,423.51c0-.84.29-1.56.88-2.16.59-.59,1.3-.89,2.15-.89h19.05c.84,0,1.56.3,2.14.89.59.59.88,1.31.88,2.16v51.35c0,3.3.53,6.02,1.59,8.18,1.06,2.15,2.38,3.85,3.95,5.07,1.57,1.23,3.25,2.09,5.03,2.6,1.78.51,3.39.76,4.84.76s3.05-.25,4.84-.76,3.44-1.37,4.96-2.6c1.53-1.22,2.82-2.92,3.88-5.07s1.59-4.88,1.59-8.18v-51.35c0-.84.29-1.56.88-2.16.59-.59,1.3-.89,2.15-.89h19.05c.84,0,1.56.3,2.14.89.59.59.88,1.31.88,2.16v51.35c0,6-.95,11.45-2.85,16.35-1.9,4.9-4.62,9.09-8.16,12.55-3.55,3.47-7.81,6.15-12.78,8.05-4.98,1.9-10.51,2.85-16.58,2.85s-11.6-.95-16.58-2.85c-4.98-1.9-9.24-4.58-12.78-8.05-3.55-3.46-6.29-7.65-8.23-12.55-1.94-4.9-2.91-10.35-2.91-16.35v-51.35Z"/>
        <path class="cls-1" d="m229.4,488.16h-11.06c-.85,0-1.57.3-2.16.89-.59.59-.89,1.31-.89,2.15v18.89c0,.85-.3,1.56-.88,2.15-.59.59-1.3.89-2.14.89h-19.05c-.84,0-1.56-.3-2.15-.89-.59-.59-.88-1.31-.88-2.15v-86.72c0-.84.3-1.56.89-2.15.59-.59,1.31-.89,2.16-.89h38.79c4.73,0,9.19.89,13.37,2.66,4.18,1.77,7.82,4.23,10.9,7.35,3.08,3.13,5.53,6.76,7.35,10.9,1.82,4.14,2.73,8.58,2.73,13.31s-.76,9.15-2.29,13.25c-1.53,4.1-3.84,7.65-6.93,10.65-3.09,3-6.95,5.37-11.56,7.1-4.62,1.73-10.02,2.6-16.2,2.6Zm.92-44.5h-11.97c-.85,0-1.57.3-2.17.88s-.89,1.3-.89,2.14v14.87c0,.84.3,1.56.89,2.14s1.31.88,2.17.88h13.63c3.23,0,5.58-1.03,7.07-3.09,1.48-2.06,2.23-4.39,2.23-6.99,0-1.34-.23-2.67-.7-3.97-.47-1.3-1.17-2.46-2.1-3.46-.94-1.01-2.08-1.83-3.44-2.46-1.36-.63-2.93-.94-4.71-.94Z"/>
        <path class="cls-1" d="m301.25,446.71v5.33c0,.85.3,1.56.89,2.15.59.59,1.31.89,2.15.89h34.36c.84,0,1.56.3,2.16.89.59.59.89,1.31.89,2.15v17.5c0,.85-.3,1.57-.89,2.16-.59.59-1.31.89-2.16.89h-34.36c-.85,0-1.56.3-2.15.89s-.89,1.31-.89,2.16v4.82c0,.85.3,1.57.89,2.16.59.59,1.31.89,2.15.89h39.43c.84,0,1.56.3,2.15.89.59.59.89,1.31.89,2.16v17.5c0,.85-.3,1.56-.89,2.15s-1.31.89-2.15.89h-64.53c-.85,0-1.56-.3-2.16-.89-.59-.59-.89-1.31-.89-2.15v-86.72c0-.84.3-1.56.89-2.15.59-.59,1.31-.89,2.16-.89h64.53c.84,0,1.56.3,2.15.89.59.59.89,1.31.89,2.15v17.24c0,.85-.3,1.56-.89,2.15s-1.31.89-2.15.89h-39.43c-.85,0-1.56.3-2.15.89s-.89,1.31-.89,2.15Z"/>
        <path class="cls-1" d="m385.03,513.14h-18.99c-.85,0-1.57-.3-2.17-.89-.59-.59-.89-1.31-.89-2.15v-86.72c0-.84.3-1.56.89-2.15s1.31-.89,2.15-.89h39.43c4.9,0,9.42.82,13.57,2.47,4.14,1.65,7.67,3.95,10.59,6.91,2.91,2.96,5.2,6.47,6.85,10.52,1.65,4.06,2.47,8.54,2.47,13.44,0,2.71-.32,5.39-.95,8.05-.63,2.66-1.54,5.18-2.73,7.54-1.18,2.37-2.58,4.5-4.18,6.4-1.61,1.9-3.42,3.49-5.45,4.75-.68.51-1.12,1.12-1.33,1.84-.21.72-.06,1.42.44,2.09,3.21,4.23,6.59,8.58,10.14,13.06,3.55,4.48,6.72,8.58,9.51,12.3.51.68.63,1.42.38,2.22-.25.8-.8,1.2-1.65,1.2h-23.58c-.85,0-1.76-.23-2.73-.7-.97-.46-1.71-1.03-2.22-1.71-2.69-3.55-5.36-7.14-8.01-10.78-2.65-3.63-5.28-7.31-7.89-11.03-.5-.68-1.22-1.25-2.15-1.71-.92-.46-1.81-.7-2.65-.7h-2.78c-.84,0-1.56.3-2.15.89-.59.59-.88,1.31-.88,2.16v20.54c0,.85-.3,1.56-.89,2.15-.59.59-1.32.89-2.16.89Zm6.09-49.95h13.37c1.01,0,2.06-.19,3.15-.57,1.09-.38,2.1-.97,3.03-1.78.93-.8,1.68-1.79,2.27-2.98.59-1.18.88-2.58.88-4.18,0-.84-.15-1.84-.44-2.98-.3-1.14-.8-2.24-1.51-3.3-.72-1.05-1.68-1.94-2.9-2.66-1.22-.72-2.71-1.08-4.48-1.08h-13.37c-.84,0-1.56.3-2.14.89-.59.59-.88,1.31-.88,2.15v13.44c0,.85.29,1.56.88,2.16.59.59,1.3.89,2.14.89Z"/>
        <path class="cls-1" d="m543.78,488.54c-2.45,3.96-5.16,7.56-8.11,10.8-2.96,3.24-6.28,5.99-9.95,8.26-3.68,2.27-7.75,4.04-12.23,5.3-4.48,1.26-9.43,1.89-14.83,1.89-6.76,0-13.1-1.27-19.02-3.8-5.92-2.54-11.09-5.96-15.53-10.27-4.44-4.31-7.92-9.38-10.46-15.21-2.54-5.83-3.8-12.04-3.8-18.64s1.27-12.81,3.8-18.64c2.54-5.83,6.02-10.9,10.46-15.21,4.44-4.31,9.61-7.73,15.53-10.27,5.92-2.54,12.25-3.8,19.02-3.8,5.58,0,10.61.63,15.09,1.9,4.48,1.27,8.53,3.04,12.17,5.33,3.63,2.28,6.91,5.05,9.83,8.3,2.92,3.25,5.6,6.83,8.05,10.71.42.68.51,1.39.25,2.16-.25.76-.76,1.31-1.52,1.65l-18,7.1c-.85.34-1.69.34-2.54,0-.85-.34-1.48-.84-1.9-1.52-2.45-3.89-5.41-6.87-8.87-8.94-3.47-2.07-7.65-3.11-12.55-3.11-3.21,0-6.23.68-9.06,2.03-2.83,1.36-5.31,3.16-7.42,5.4-2.11,2.25-3.76,4.85-4.94,7.82-1.18,2.97-1.77,6.02-1.77,9.15s.59,6.29,1.77,9.21c1.18,2.92,2.83,5.49,4.94,7.69,2.11,2.2,4.58,3.98,7.42,5.34,2.83,1.36,5.85,2.03,9.06,2.03,4.65,0,8.85-1.12,12.61-3.36,3.76-2.24,6.74-5.13,8.94-8.68.42-.68,1.03-1.18,1.84-1.52.8-.34,1.63-.34,2.47,0l18,7.1c.76.34,1.27.87,1.52,1.59.25.72.17,1.46-.25,2.22Z"/>
        <path class="cls-1" d="m576.74,423.25c.34-.76.91-1.41,1.71-1.96.8-.55,1.67-.83,2.6-.83h17.75c.84,0,1.67.28,2.47.83.8.55,1.37,1.2,1.71,1.96l37.02,86.21c.34.76.27,1.56-.19,2.41-.46.85-1.37,1.27-2.73,1.27h-21.68c-.93,0-1.8-.27-2.6-.82-.8-.55-1.42-1.2-1.84-1.97l-3.42-7.61c-.42-.76-1.04-1.41-1.84-1.96-.8-.55-1.63-.83-2.47-.83h-26.75c-.93,0-1.8.28-2.6.83-.8.55-1.38,1.2-1.71,1.96l-3.55,7.61c-.34.76-.91,1.42-1.71,1.97-.8.55-1.63.82-2.47.82h-21.81c-.42,0-.87-.08-1.33-.25-.46-.17-.84-.42-1.14-.76-.3-.34-.49-.76-.57-1.27-.08-.51.04-1.1.38-1.77l36.77-85.83Zm7.48,55.15h11.28c.84,0,1.46-.27,1.84-.82.38-.55.36-1.2-.06-1.97-.85-2.11-1.86-4.58-3.04-7.42-1.18-2.83-2.28-5.47-3.3-7.92-.34-.76-.72-1.14-1.14-1.14s-.8.38-1.14,1.14l-6.34,15.34c-.34.76-.34,1.42,0,1.97.34.55.97.82,1.9.82Z"/>
        <path class="cls-1" d="m656.48,481.32c4.56,2.96,9.08,5.28,13.57,6.97,4.48,1.69,8.66,2.54,12.55,2.54s6.55-.53,8.49-1.59c1.94-1.05,2.91-2.64,2.91-4.75,0-1.1-.42-1.96-1.27-2.6-.85-.63-1.97-1.16-3.36-1.59-1.39-.42-3.02-.76-4.88-1.01-1.86-.25-3.76-.59-5.7-1.01-1.86-.34-4.04-.74-6.53-1.2-2.49-.46-5.05-1.14-7.67-2.03s-5.22-2.01-7.8-3.36c-2.58-1.35-4.88-3.08-6.91-5.2-2.03-2.11-3.66-4.63-4.88-7.54-1.23-2.91-1.84-6.36-1.84-10.33,0-5.83,1.14-10.65,3.42-14.45s5.18-6.82,8.68-9.07c3.51-2.24,7.42-3.8,11.73-4.69,4.31-.89,8.49-1.33,12.55-1.33,7.1,0,13.46,1.04,19.08,3.11,5.62,2.07,11.01,5.09,16.16,9.07.68.59,1.06,1.31,1.14,2.16.08.85-.13,1.61-.63,2.28l-9.89,14.07c-.51.68-1.18,1.1-2.03,1.27-.85.17-1.61,0-2.28-.51-4.31-2.7-8.33-4.63-12.04-5.77-3.72-1.14-7.14-1.71-10.27-1.71-.93,0-2.01.02-3.23.06-1.23.04-2.39.21-3.49.51s-2.01.78-2.73,1.46c-.72.68-1.08,1.61-1.08,2.79s.89,2.24,2.66,3.17c1.78.93,3.8,1.73,6.09,2.41,2.28.68,4.48,1.2,6.59,1.59,2.11.38,3.46.61,4.06.7,3.04.59,6.38,1.46,10.02,2.6,3.63,1.14,7.04,2.83,10.21,5.07,3.17,2.24,5.83,5.16,7.99,8.75,2.15,3.59,3.23,8.09,3.23,13.5,0,5.07-.89,9.44-2.66,13.12-1.78,3.68-4.25,6.7-7.42,9.06-3.17,2.37-6.97,4.12-11.41,5.26-4.44,1.14-9.36,1.71-14.77,1.71-4.4,0-8.49-.36-12.3-1.08-3.8-.72-7.35-1.71-10.65-2.98-3.3-1.27-6.36-2.77-9.19-4.5-2.83-1.73-5.43-3.57-7.8-5.52-.68-.51-1.06-1.2-1.14-2.09-.08-.89.13-1.67.63-2.35l9.76-14.07c.51-.68,1.18-1.1,2.03-1.27.84-.17,1.61-.04,2.28.38Z"/>
        <path class="cls-1" d="m757.15,446.71v5.33c0,.85.3,1.56.89,2.15.59.59,1.31.89,2.15.89h34.36c.84,0,1.56.3,2.16.89.59.59.89,1.31.89,2.15v17.5c0,.85-.3,1.57-.89,2.16-.59.59-1.31.89-2.16.89h-34.36c-.85,0-1.56.3-2.15.89s-.89,1.31-.89,2.16v4.82c0,.85.3,1.57.89,2.16.59.59,1.31.89,2.15.89h39.43c.84,0,1.56.3,2.15.89.59.59.89,1.31.89,2.16v17.5c0,.85-.3,1.56-.89,2.15s-1.31.89-2.15.89h-64.53c-.85,0-1.56-.3-2.16-.89-.59-.59-.89-1.31-.89-2.15v-86.72c0-.84.3-1.56.89-2.15.59-.59,1.31-.89,2.16-.89h64.53c.84,0,1.56.3,2.15.89.59.59.89,1.31.89,2.15v17.24c0,.85-.3,1.56-.89,2.15s-1.31.89-2.15.89h-39.43c-.85,0-1.56.3-2.15.89s-.89,1.31-.89,2.15Z"/>
      </g>
      <g>
        <path class="cls-1" d="m465.23,7.65c0-4.23-3.43-7.65-7.65-7.65h-175.42c-4.23,0-7.65,3.43-7.65,7.65v175.42c0,4.23,3.43,7.65,7.65,7.65h47.58c4.23,0,7.65-3.43,7.65-7.65v-112.53c0-4.23,3.43-7.65,7.65-7.65h112.53c4.23,0,7.65-3.43,7.65-7.65V7.65Z"/>
        <path class="cls-1" d="m337.43,350.89c0,4.23,3.43,7.65,7.65,7.65h175.42c4.23,0,7.65-3.43,7.65-7.65v-175.42c0-4.23-3.43-7.65-7.65-7.65h-47.58c-4.23,0-7.65,3.43-7.65,7.65v112.53c0,4.23-3.43,7.65-7.65,7.65h-112.53c-4.23,0-7.65,3.43-7.65,7.65v47.58Z"/>
      </g>
    </g>
  </g>
</svg>