<svg width="199" height="71" viewBox="0 0 199 71" fill="none" xmlns="http://www.w3.org/2000/svg">
<path d="M75.2652 18.442C77.3148 18.442 79.1402 18.8423 80.7414 19.6429C82.3747 20.4435 83.6557 21.6765 84.5844 23.3417C85.5131 24.975 85.9774 27.0886 85.9774 29.6826V44.382H79.9728V30.4512C79.9728 28.1775 79.4284 26.4802 78.3396 25.3593C77.2827 24.2384 75.7936 23.678 73.8721 23.678C72.463 23.678 71.2141 23.9662 70.1252 24.5427C69.0364 25.1191 68.1877 25.9838 67.5793 27.1367C67.0028 28.2575 66.7146 29.6826 66.7146 31.412V44.382H60.71V18.7302H66.4264V25.6475L65.4176 23.5339C66.3143 21.9006 67.6113 20.6517 69.3086 19.787C71.0379 18.8903 73.0235 18.442 75.2652 18.442Z" fill="black"/>
<path d="M89.0312 44.382V18.7302H95.0358V44.382H89.0312ZM92.0575 14.5029C90.9366 14.5029 90.0079 14.1506 89.2714 13.4461C88.5668 12.7416 88.2145 11.8929 88.2145 10.9001C88.2145 9.87535 88.5668 9.0267 89.2714 8.35418C90.0079 7.64963 90.9366 7.29736 92.0575 7.29736C93.1784 7.29736 94.0911 7.63362 94.7956 8.30614C95.5322 8.94663 95.9005 9.76326 95.9005 10.756C95.9005 11.8128 95.5482 12.7095 94.8437 13.4461C94.1391 14.1506 93.2104 14.5029 92.0575 14.5029Z" fill="black"/>
<path d="M110.891 44.7182C108.425 44.7182 106.199 44.1738 104.214 43.085C102.26 41.9641 100.723 40.4269 99.6023 38.4734C98.4815 36.5199 97.921 34.2141 97.921 31.5561C97.921 28.898 98.4815 26.5922 99.6023 24.6387C100.723 22.6852 102.26 21.1641 104.214 20.0752C106.199 18.9864 108.425 18.442 110.891 18.442C113.037 18.442 114.958 18.9223 116.655 19.8831C118.353 20.8118 119.698 22.2369 120.691 24.1584C121.683 26.0798 122.18 28.5457 122.18 31.5561C122.18 34.5344 121.699 37.0003 120.739 38.9538C119.778 40.8753 118.449 42.3164 116.752 43.2771C115.054 44.2378 113.101 44.7182 110.891 44.7182ZM111.612 39.5783C113.053 39.5783 114.334 39.258 115.455 38.6175C116.607 37.977 117.52 37.0483 118.193 35.8314C118.897 34.6144 119.249 33.1893 119.249 31.5561C119.249 29.8908 118.897 28.4657 118.193 27.2808C117.52 26.0638 116.607 25.1351 115.455 24.4946C114.334 23.8541 113.053 23.5339 111.612 23.5339C110.17 23.5339 108.873 23.8541 107.721 24.4946C106.6 25.1351 105.687 26.0638 104.982 27.2808C104.31 28.4657 103.974 29.8908 103.974 31.5561C103.974 33.1893 104.31 34.6144 104.982 35.8314C105.687 37.0483 106.6 37.977 107.721 38.6175C108.873 39.258 110.17 39.5783 111.612 39.5783ZM119.394 44.382V38.3293L119.634 31.508L119.153 24.6868V8.73847H125.11V44.382H119.394Z" fill="black"/>
<path d="M139.066 44.7182C136.888 44.7182 134.967 44.3179 133.301 43.5173C131.636 42.6847 130.339 41.4357 129.41 39.7704C128.482 38.0731 128.017 35.9435 128.017 33.3815V18.7302H134.022V32.5648C134.022 34.8706 134.534 36.6 135.559 37.7528C136.616 38.8737 138.105 39.4341 140.027 39.4341C141.436 39.4341 142.653 39.1459 143.677 38.5695C144.734 37.993 145.551 37.1284 146.127 35.9755C146.736 34.8226 147.04 33.3975 147.04 31.7002V18.7302H153.045V44.382H147.328V37.4646L148.337 39.5783C147.472 41.2435 146.207 42.5245 144.542 43.4212C142.877 44.2859 141.051 44.7182 139.066 44.7182Z" fill="black"/>
<path d="M188.48 18.442C190.529 18.442 192.339 18.8423 193.908 19.6429C195.509 20.4435 196.758 21.6765 197.655 23.3417C198.552 24.975 199 27.0886 199 29.6826V44.382H192.995V30.4512C192.995 28.1775 192.499 26.4802 191.506 25.3593C190.513 24.2384 189.088 23.678 187.231 23.678C185.918 23.678 184.749 23.9662 183.724 24.5427C182.731 25.1191 181.947 25.9678 181.37 27.0886C180.826 28.2095 180.554 29.6346 180.554 31.3639V44.382H174.549V30.4512C174.549 28.1775 174.053 26.4802 173.06 25.3593C172.067 24.2384 170.642 23.678 168.785 23.678C167.472 23.678 166.303 23.9662 165.278 24.5427C164.285 25.1191 163.501 25.9678 162.924 27.0886C162.38 28.2095 162.108 29.6346 162.108 31.3639V44.382H156.103V18.7302H161.819V25.5514L160.811 23.5339C161.675 21.8686 162.924 20.6036 164.557 19.739C166.223 18.8743 168.112 18.442 170.226 18.442C172.628 18.442 174.709 19.0344 176.471 20.2193C178.264 21.4042 179.449 23.1976 180.025 25.5995L177.672 24.7828C178.504 22.8614 179.881 21.3242 181.803 20.1713C183.724 19.0184 185.95 18.442 188.48 18.442Z" fill="black"/>
<path fill-rule="evenodd" clip-rule="evenodd" d="M18.4727 1.83882L41.0634 24.4777L38.9096 26.6361L16.3189 3.99722L18.4727 1.83882Z" fill="#2EE21E"/>
<path fill-rule="evenodd" clip-rule="evenodd" d="M20.2985 11.2996L37.305 28.3424L35.1512 30.5008L18.1447 13.458L20.2985 11.2996Z" fill="#FFC700"/>
<path fill-rule="evenodd" clip-rule="evenodd" d="M2.15356 0.74707L33.6283 32.2889L31.4745 34.4473L-0.000244141 2.90547L2.15356 0.74707Z" fill="#FF005C"/>
<path fill-rule="evenodd" clip-rule="evenodd" d="M0.436436 68.4607L42.8183 25.9885L44.9721 28.1469L2.59024 70.6191L0.436436 68.4607Z" fill="#FFC700"/>
<path fill-rule="evenodd" clip-rule="evenodd" d="M9.0666 67.4432L46.7564 29.6731L48.9102 31.8315L11.2204 69.6016L9.0666 67.4432Z" fill="#547AFF"/>
<path fill-rule="evenodd" clip-rule="evenodd" d="M9.0666 52.1811L27.7267 33.4812L29.8805 35.6396L11.2204 54.3395L9.0666 52.1811Z" fill="#00C6BA"/>
</svg>
