<svg width="88" height="35" viewBox="0 0 88 35" fill="none" xmlns="http://www.w3.org/2000/svg">
<path d="M28.1967 5.64171V3.30795H29.5047C30.0148 3.30795 30.3478 2.96859 30.3478 2.40121V0H33.052V3.28547H36.2662V5.64171H33.052V11.125C33.052 12.1441 33.584 12.7565 34.6481 12.7565H36.2002V15.2037H34.0501C31.5899 15.2037 30.1708 13.7767 30.1708 11.2385V5.64171H28.1967Z" fill="#131819"/>
<path d="M43.8455 2.99107C47.5917 2.99107 49.6308 5.8237 49.6308 9.17661V10.1058H40.7633C40.8513 11.9182 42.0934 13.1419 43.9335 13.1419C45.3306 13.1419 46.4167 12.4846 46.8377 11.4879H49.5198C48.9208 13.9351 46.8377 15.4992 43.8445 15.4992C42.1374 15.4992 40.7183 14.9104 39.6102 13.7542C38.5241 12.5755 37.9701 11.1036 37.9701 9.31256C37.9701 5.59675 40.4533 2.99107 43.8445 2.99107H43.8455ZM46.8827 8.0215C46.7277 6.41249 45.5306 5.34731 43.8455 5.34731C42.2494 5.34731 40.9853 6.50242 40.8083 8.0215H46.8827Z" fill="#131819"/>
<path d="M60.7135 4.28213C61.7775 5.14284 62.4206 6.27547 62.6426 7.68107H59.6944C59.3394 6.47994 58.2313 5.66419 56.9013 5.66419C54.9721 5.66419 53.7091 7.18221 53.7091 9.24405C53.7091 11.3059 55.0391 12.8239 56.9232 12.8239C58.2533 12.8239 59.3394 12.0531 59.6724 10.898H62.6206C62.3986 12.2801 61.7566 13.3902 60.6915 14.2285C59.6494 15.0667 58.3643 15.497 56.8782 15.497C53.243 15.497 50.7818 12.7094 50.7818 9.24298C50.7818 5.7766 53.243 2.98893 56.8782 2.98893C58.3633 2.98893 59.6494 3.41928 60.7135 4.28106V4.28213Z" fill="#131819"/>
<path d="M63.8596 15.2048V3.28547H66.6087V4.73604H66.7637C67.2958 3.76185 68.4709 2.99107 70.045 2.99107C71.3311 2.99107 72.3501 3.39894 73.1041 4.23717C73.8802 5.05292 74.2562 6.11809 74.2562 7.40916V15.2037H71.374V8.17994C71.374 6.72937 70.4649 5.75518 69.1348 5.75518C67.7377 5.75518 66.7407 6.86533 66.7407 8.38334V15.2037H63.8585L63.8596 15.2048Z" fill="#131819"/>
<path d="M81.7915 2.99107C85.3828 2.94611 88.0649 5.77873 87.9979 9.24512C87.9979 12.7351 85.4048 15.4992 81.7915 15.4992C79.9734 15.4992 78.4883 14.9104 77.3133 13.7317C76.1602 12.5306 75.5842 11.0351 75.5842 9.24512C75.5842 5.71022 78.1113 2.99107 81.7915 2.99107ZM79.4194 11.8283C80.0405 12.4856 80.8155 12.825 81.7696 12.825C82.7237 12.825 83.5207 12.4846 84.1417 11.8283C84.7628 11.1485 85.0728 10.2878 85.0728 9.24512C85.0728 8.20242 84.7628 7.34171 84.1417 6.68441C83.5207 6.00462 82.7446 5.66526 81.7915 5.66526C80.8385 5.66526 80.0405 6.00462 79.4194 6.68441C78.8214 7.34171 78.5103 8.20242 78.5103 9.24512C78.5103 10.2878 78.8203 11.1485 79.4194 11.8283Z" fill="#131819"/>
<path d="M30.8568 26.2077C30.9458 27.2055 31.7659 27.7718 33.074 27.7718C34.382 27.7718 35.1571 27.183 35.1571 26.3447C35.1571 23.8065 28.4627 26.2088 28.4627 21.2233C28.4627 20.1806 28.8837 19.3199 29.7037 18.6176C30.5238 17.9154 31.6549 17.5749 33.0509 17.5749C35.6441 17.5749 37.4622 18.9345 37.6392 21.2683H35.09C34.979 20.3615 34.27 19.8402 33.0289 19.8402C31.8758 19.8402 31.0998 20.3391 31.0998 21.1312C31.0998 23.3976 37.9502 20.9953 37.9502 26.1842C37.9502 28.473 36.1101 30.082 33.0289 30.082C29.9477 30.082 28.3077 28.6314 28.1967 26.2066H30.8568V26.2077Z" fill="#7E35E4"/>
<path d="M39.8113 17.8693H42.6935V24.9167C42.6935 26.3672 43.6245 27.3639 44.9546 27.3639C46.3517 27.3639 47.3488 26.2313 47.3488 24.7133V17.8704H50.231V29.7897H47.4818V28.3391H47.3048C46.7947 29.3133 45.5757 30.0841 44.0466 30.0841C42.7605 30.0841 41.7415 29.6762 40.9654 28.838C40.1894 27.9998 39.8134 26.9571 39.8134 25.666V17.8715L39.8113 17.8693Z" fill="#7E35E4"/>
<path d="M52.401 35V17.8693H55.2381V19.3874H55.3931C55.7251 18.866 56.7452 17.5749 58.8953 17.5749C60.5354 17.5749 61.8655 18.1412 62.8636 19.2974C63.8836 20.43 64.3937 21.9256 64.3937 23.784C64.3937 25.6425 63.8836 27.1605 62.8866 28.3381C61.8896 29.4932 60.5815 30.083 58.9854 30.083C56.9463 30.083 55.7932 28.9279 55.4382 28.2471H55.2832V35H52.401ZM58.3413 27.4088C60.2034 27.4088 61.4665 25.9358 61.4665 23.829C61.4665 21.7222 60.2034 20.2491 58.3183 20.2491C56.4331 20.2491 55.2151 21.7447 55.2151 23.829C55.2151 25.9133 56.5012 27.4088 58.3402 27.4088H58.3413Z" fill="#7E35E4"/>
<path d="M71.197 17.5749C74.9432 17.5749 76.9834 20.4076 76.9834 23.7615V24.6908H68.1158C68.2048 26.5032 69.4459 27.7268 71.286 27.7268C72.6821 27.7268 73.7692 27.0695 74.1902 26.0728H76.8724C76.2743 28.5201 74.1902 30.0841 71.197 30.0841C69.4899 30.0841 68.0718 29.4953 66.9627 28.3391C65.8767 27.1605 65.3226 25.6885 65.3226 23.8975C65.3226 20.1817 67.8058 17.576 71.197 17.576V17.5749ZM74.2342 22.6054C74.0792 20.9964 72.8821 19.9312 71.197 19.9312C69.6009 19.9312 68.3378 21.0863 68.1598 22.6054H74.2342Z" fill="#7E35E4"/>
<path d="M78.6444 29.7876V17.8683H81.3705V19.8177H81.5475C81.9905 18.7525 83.0996 17.8233 84.6067 17.8233H85.6708V20.6334H84.4737C82.6336 20.6334 81.5255 21.993 81.5255 24.1459V29.7876H78.6433H78.6444Z" fill="#7E35E4"/>
<path d="M14.0968 3.56916C14.0968 3.25014 13.8433 2.99107 13.5312 2.99107H0.565546C0.253448 2.99107 0 3.25014 0 3.56916V16.8224C0 17.1414 0.253448 17.4004 0.565546 17.4004H4.0824C4.3945 17.4004 4.64795 17.1414 4.64795 16.8224V8.32018C4.64795 8.00116 4.9014 7.74209 5.2135 7.74209H13.5312C13.8433 7.74209 14.0968 7.48302 14.0968 7.16401V3.56916Z" fill="#7E35E4"/>
<path d="M4.65109 29.5017C4.65109 29.8208 4.90454 30.0798 5.21663 30.0798H18.1823C18.4944 30.0798 18.7478 29.8208 18.7478 29.5017V16.2485C18.7478 15.9295 18.4944 15.6705 18.1823 15.6705H14.6654C14.3533 15.6705 14.0999 15.9295 14.0999 16.2485V24.7507C14.0999 25.0697 13.8464 25.3288 13.5343 25.3288H5.21663C4.90454 25.3288 4.65109 25.5879 4.65109 25.9069V29.5017Z" fill="#131819"/>
</svg>
